<svg width="538" height="187" viewBox="0 0 538 187" fill="none" xmlns="http://www.w3.org/2000/svg">
<g filter="url(#filter0_d_72_473)">
<rect x="4" y="2" width="526" height="175" fill="url(#paint0_linear_72_473)" shape-rendering="crispEdges"/>
</g>
<g clip-path="url(#clip0_72_473)">
<g clip-path="url(#clip1_72_473)">
<path d="M474.833 129.214V127.17C474.833 117.969 460.954 111.028 442.548 111.028C424.142 111.028 410.264 117.969 410.264 127.17V141.845C410.264 149.509 419.894 155.599 433.743 157.422V159.455C433.743 168.656 447.622 175.597 466.028 175.597C484.434 175.597 498.312 168.656 498.312 159.455V144.78C498.312 137.186 488.986 131.088 474.833 129.214ZM427.873 150.235C420.686 148.229 416.134 144.923 416.134 141.845V136.683C419.127 138.804 423.137 140.513 427.873 141.662V150.235ZM457.223 141.662C461.959 140.513 465.969 138.804 468.963 136.683V141.845C468.963 144.923 464.41 148.229 457.223 150.235V141.662ZM451.353 167.845C444.166 165.838 439.613 162.533 439.613 159.455V157.925C440.578 157.962 441.554 157.987 442.548 157.987C443.972 157.987 445.362 157.94 446.727 157.859C448.243 158.402 449.787 158.862 451.353 159.238V167.845ZM451.353 151.475C448.438 151.906 445.495 152.121 442.548 152.117C439.601 152.121 436.658 151.906 433.743 151.475V142.748C436.663 143.128 439.604 143.317 442.548 143.313C445.492 143.317 448.434 143.128 451.353 142.748V151.475ZM474.833 169.085C468.994 169.941 463.062 169.941 457.223 169.085V160.335C460.141 160.728 463.083 160.924 466.028 160.922C468.972 160.926 471.913 160.738 474.833 160.357V169.085ZM492.442 159.455C492.442 162.533 487.889 165.838 480.703 167.845V159.271C485.439 158.123 489.449 156.413 492.442 154.293V159.455Z" fill="white" fill-opacity="0.1"/>
<path d="M530.784 14.2138V12.1703C530.784 2.96924 516.906 -3.97192 498.5 -3.97192C480.094 -3.97192 466.215 2.96924 466.215 12.1703V26.8451C466.215 34.509 475.846 40.599 489.695 42.4223V44.4548C489.695 53.6559 503.574 60.597 521.979 60.597C540.385 60.597 554.264 53.6559 554.264 44.4548V29.78C554.264 22.1858 544.938 16.0885 530.784 14.2138ZM483.825 35.2354C476.638 33.2286 472.085 29.9231 472.085 26.8451V21.6832C475.079 23.8037 479.089 25.5133 483.825 26.6616V35.2354ZM513.175 26.6616C517.911 25.5133 521.921 23.8037 524.914 21.6832V26.8451C524.914 29.9231 520.362 33.2286 513.175 35.2354V26.6616ZM507.305 52.8451C500.118 50.8383 495.565 47.5328 495.565 44.4548V42.9249C496.53 42.9616 497.506 42.9873 498.5 42.9873C499.923 42.9873 501.314 42.9396 502.678 42.8589C504.195 43.4017 505.739 43.8621 507.305 44.2383V52.8451ZM507.305 36.4754C504.39 36.906 501.447 37.1206 498.5 37.1174C495.553 37.1206 492.61 36.906 489.695 36.4754V27.7476C492.614 28.128 495.556 28.3167 498.5 28.3125C501.444 28.3167 504.385 28.128 507.305 27.7476V36.4754ZM530.784 54.0851C524.946 54.9411 519.013 54.9411 513.175 54.0851V45.3353C516.093 45.7276 519.035 45.9237 521.979 45.9223C524.924 45.9264 527.865 45.7377 530.784 45.3573V54.0851ZM548.394 44.4548C548.394 47.5328 543.841 50.8383 536.654 52.8451V44.2714C541.39 43.123 545.4 41.4134 548.394 39.2929V44.4548Z" fill="white" fill-opacity="0.1"/>
</g>
<g clip-path="url(#clip2_72_473)">
<path d="M330.889 168.201V166.156C330.889 156.947 316.998 150 298.576 150C280.154 150 266.264 156.947 266.264 166.156V180.844C266.264 188.514 275.902 194.61 289.764 196.435V198.469C289.764 207.678 303.654 214.625 322.076 214.625C340.498 214.625 354.389 207.678 354.389 198.469V183.781C354.389 176.18 345.055 170.078 330.889 168.201ZM283.889 189.241C276.695 187.233 272.139 183.924 272.139 180.844V175.677C275.135 177.8 279.148 179.511 283.889 180.66V189.241ZM313.264 180.66C318.004 179.511 322.017 177.8 325.014 175.677V180.844C325.014 183.924 320.457 187.233 313.264 189.241V180.66ZM307.389 206.866C300.195 204.858 295.639 201.549 295.639 198.469V196.938C296.604 196.974 297.581 197 298.576 197C300.001 197 301.392 196.952 302.758 196.871C304.276 197.415 305.822 197.876 307.389 198.252V206.866ZM307.389 190.482C304.471 190.913 301.525 191.128 298.576 191.125C295.627 191.128 292.681 190.913 289.764 190.482V181.747C292.686 182.128 295.629 182.317 298.576 182.312C301.523 182.317 304.467 182.128 307.389 181.747V190.482ZM330.889 208.107C325.045 208.964 319.107 208.964 313.264 208.107V199.35C316.185 199.743 319.129 199.939 322.076 199.938C325.023 199.942 327.967 199.753 330.889 199.372V208.107ZM348.514 198.469C348.514 201.549 343.957 204.858 336.764 206.866V198.285C341.504 197.136 345.517 195.425 348.514 193.302V198.469Z" fill="white" fill-opacity="0.1"/>
<path d="M386.889 53.2015V51.1562C386.889 41.9472 372.998 35 354.576 35C336.154 35 322.264 41.9472 322.264 51.1562V65.8438C322.264 73.5143 331.902 79.6096 345.764 81.4345V83.4688C345.764 92.6778 359.654 99.625 378.076 99.625C396.498 99.625 410.389 92.6778 410.389 83.4688V68.7812C410.389 61.1805 401.055 55.0778 386.889 53.2015ZM339.889 74.2413C332.695 72.2328 328.139 68.9245 328.139 65.8438V60.6774C331.135 62.7998 335.148 64.5109 339.889 65.6602V74.2413ZM369.264 65.6602C374.004 64.5109 378.017 62.7998 381.014 60.6774V65.8438C381.014 68.9245 376.457 72.2328 369.264 74.2413V65.6602ZM363.389 91.8663C356.195 89.8578 351.639 86.5495 351.639 83.4688V81.9376C352.604 81.9743 353.581 82 354.576 82C356.001 82 357.392 81.9523 358.758 81.8715C360.276 82.4147 361.822 82.8756 363.389 83.2521V91.8663ZM363.389 75.4824C360.471 75.9134 357.525 76.1282 354.576 76.125C351.627 76.1282 348.681 75.9134 345.764 75.4824V66.747C348.686 67.1278 351.629 67.3167 354.576 67.3125C357.523 67.3167 360.467 67.1278 363.389 66.747V75.4824ZM386.889 93.1074C381.045 93.9642 375.107 93.9642 369.264 93.1074V84.35C372.185 84.7427 375.129 84.9389 378.076 84.9375C381.023 84.9417 383.967 84.7528 386.889 84.372V93.1074ZM404.514 83.4688C404.514 86.5495 399.957 89.8578 392.764 91.8663V83.2852C397.504 82.1359 401.517 80.4248 404.514 78.3024V83.4688Z" fill="white" fill-opacity="0.1"/>
</g>
<g clip-path="url(#clip3_72_473)">
<path d="M67.8887 124.201V122.156C67.8887 112.947 53.998 106 35.5762 106C17.1544 106 3.26367 112.947 3.26367 122.156V136.844C3.26367 144.514 12.9023 150.61 26.7637 152.435V154.469C26.7637 163.678 40.6544 170.625 59.0762 170.625C77.498 170.625 91.3887 163.678 91.3887 154.469V139.781C91.3887 132.18 82.0548 126.078 67.8887 124.201ZM20.8887 145.241C13.6955 143.233 9.13867 139.924 9.13867 136.844V131.677C12.1349 133.8 16.1483 135.511 20.8887 136.66V145.241ZM50.2637 136.66C55.0041 135.511 59.0174 133.8 62.0137 131.677V136.844C62.0137 139.924 57.4569 143.233 50.2637 145.241V136.66ZM44.3887 162.866C37.1955 160.858 32.6387 157.549 32.6387 154.469V152.938C33.6044 152.974 34.5811 153 35.5762 153C37.0009 153 38.3925 152.952 39.7584 152.871C41.2759 153.415 42.8215 153.876 44.3887 154.252V162.866ZM44.3887 146.482C41.471 146.913 38.5255 147.128 35.5762 147.125C32.6269 147.128 29.6813 146.913 26.7637 146.482V137.747C29.6857 138.128 32.6295 138.317 35.5762 138.312C38.5229 138.317 41.4667 138.128 44.3887 137.747V146.482ZM67.8887 164.107C62.0449 164.964 56.1074 164.964 50.2637 164.107V155.35C53.1847 155.743 56.1288 155.939 59.0762 155.938C62.0229 155.942 64.9667 155.753 67.8887 155.372V164.107ZM85.5137 154.469C85.5137 157.549 80.9569 160.858 73.7637 162.866V154.285C78.5041 153.136 82.5174 151.425 85.5137 149.302V154.469Z" fill="white" fill-opacity="0.1"/>
<path d="M123.889 9.20148V7.15625C123.889 -2.05281 109.998 -9 91.5762 -9C73.1544 -9 59.2637 -2.05281 59.2637 7.15625V21.8438C59.2637 29.5143 68.9023 35.6096 82.7637 37.4345V39.4688C82.7637 48.6778 96.6544 55.625 115.076 55.625C133.498 55.625 147.389 48.6778 147.389 39.4688V24.7812C147.389 17.1805 138.055 11.0778 123.889 9.20148ZM76.8887 30.2413C69.6955 28.2328 65.1387 24.9245 65.1387 21.8438V16.6774C68.1349 18.7998 72.1483 20.5109 76.8887 21.6602V30.2413ZM106.264 21.6602C111.004 20.5109 115.017 18.7998 118.014 16.6774V21.8438C118.014 24.9245 113.457 28.2328 106.264 30.2413V21.6602ZM100.389 47.8663C93.1955 45.8578 88.6387 42.5495 88.6387 39.4688V37.9376C89.6044 37.9743 90.5811 38 91.5762 38C93.0009 38 94.3925 37.9523 95.7584 37.8715C97.2759 38.4147 98.8215 38.8756 100.389 39.2521V47.8663ZM100.389 31.4824C97.471 31.9134 94.5255 32.1282 91.5762 32.125C88.6269 32.1282 85.6813 31.9134 82.7637 31.4824V22.747C85.6857 23.1278 88.6295 23.3167 91.5762 23.3125C94.5229 23.3167 97.4667 23.1278 100.389 22.747V31.4824ZM123.889 49.1074C118.045 49.9642 112.107 49.9642 106.264 49.1074V40.35C109.185 40.7427 112.129 40.9389 115.076 40.9375C118.023 40.9417 120.967 40.7528 123.889 40.372V49.1074ZM141.514 39.4688C141.514 42.5495 136.957 45.8578 129.764 47.8663V39.2852C134.504 38.1359 138.517 36.4248 141.514 34.3024V39.4688Z" fill="white" fill-opacity="0.1"/>
</g>
<g clip-path="url(#clip4_72_473)">
<path d="M207.889 93.2015V91.1562C207.889 81.9472 193.998 75 175.576 75C157.154 75 143.264 81.9472 143.264 91.1562V105.844C143.264 113.514 152.902 119.61 166.764 121.435V123.469C166.764 132.678 180.654 139.625 199.076 139.625C217.498 139.625 231.389 132.678 231.389 123.469V108.781C231.389 101.18 222.055 95.0778 207.889 93.2015ZM160.889 114.241C153.695 112.233 149.139 108.924 149.139 105.844V100.677C152.135 102.8 156.148 104.511 160.889 105.66V114.241ZM190.264 105.66C195.004 104.511 199.017 102.8 202.014 100.677V105.844C202.014 108.924 197.457 112.233 190.264 114.241V105.66ZM184.389 131.866C177.195 129.858 172.639 126.549 172.639 123.469V121.938C173.604 121.974 174.581 122 175.576 122C177.001 122 178.392 121.952 179.758 121.871C181.276 122.415 182.822 122.876 184.389 123.252V131.866ZM184.389 115.482C181.471 115.913 178.525 116.128 175.576 116.125C172.627 116.128 169.681 115.913 166.764 115.482V106.747C169.686 107.128 172.629 107.317 175.576 107.312C178.523 107.317 181.467 107.128 184.389 106.747V115.482ZM207.889 133.107C202.045 133.964 196.107 133.964 190.264 133.107V124.35C193.185 124.743 196.129 124.939 199.076 124.938C202.023 124.942 204.967 124.753 207.889 124.372V133.107ZM225.514 123.469C225.514 126.549 220.957 129.858 213.764 131.866V123.285C218.504 122.136 222.517 120.425 225.514 118.302V123.469Z" fill="white" fill-opacity="0.1"/>
<path d="M263.889 -21.7985V-23.8438C263.889 -33.0528 249.998 -40 231.576 -40C213.154 -40 199.264 -33.0528 199.264 -23.8438V-9.15625C199.264 -1.4857 208.902 4.60961 222.764 6.43453V8.46875C222.764 17.6778 236.654 24.625 255.076 24.625C273.498 24.625 287.389 17.6778 287.389 8.46875V-6.21875C287.389 -13.8195 278.055 -19.9222 263.889 -21.7985ZM216.889 -0.758674C209.695 -2.76719 205.139 -6.07555 205.139 -9.15625V-14.3226C208.135 -12.2002 212.148 -10.4891 216.889 -9.33984V-0.758674ZM246.264 -9.33984C251.004 -10.4891 255.017 -12.2002 258.014 -14.3226V-9.15625C258.014 -6.07555 253.457 -2.76719 246.264 -0.758674V-9.33984ZM240.389 16.8663C233.195 14.8578 228.639 11.5495 228.639 8.46875V6.93758C229.604 6.9743 230.581 7 231.576 7C233.001 7 234.392 6.95226 235.758 6.87148C237.276 7.4147 238.822 7.87559 240.389 8.25211V16.8663ZM240.389 0.482422C237.471 0.91345 234.525 1.12823 231.576 1.125C228.627 1.12823 225.681 0.91345 222.764 0.482422V-8.25297C225.686 -7.87223 228.629 -7.68334 231.576 -7.6875C234.523 -7.68334 237.467 -7.87223 240.389 -8.25297V0.482422ZM263.889 18.1074C258.045 18.9642 252.107 18.9642 246.264 18.1074V9.35C249.185 9.74267 252.129 9.93895 255.076 9.9375C258.023 9.94166 260.967 9.75277 263.889 9.37203V18.1074ZM281.514 8.46875C281.514 11.5495 276.957 14.8578 269.764 16.8663V8.28516C274.504 7.13586 278.517 5.42476 281.514 3.30242V8.46875Z" fill="white" fill-opacity="0.1"/>
</g>
</g>
<defs>
<filter id="filter0_d_72_473" x="0" y="0" width="538" height="187" filterUnits="userSpaceOnUse" color-interpolation-filters="sRGB">
<feFlood flood-opacity="0" result="BackgroundImageFix"/>
<feColorMatrix in="SourceAlpha" type="matrix" values="0 0 0 0 0 0 0 0 0 0 0 0 0 0 0 0 0 0 127 0" result="hardAlpha"/>
<feMorphology radius="2" operator="dilate" in="SourceAlpha" result="effect1_dropShadow_72_473"/>
<feOffset dx="2" dy="4"/>
<feGaussianBlur stdDeviation="2"/>
<feComposite in2="hardAlpha" operator="out"/>
<feColorMatrix type="matrix" values="0 0 0 0 0 0 0 0 0 0 0 0 0 0 0 0 0 0 0.05 0"/>
<feBlend mode="normal" in2="BackgroundImageFix" result="effect1_dropShadow_72_473"/>
<feBlend mode="normal" in="SourceGraphic" in2="effect1_dropShadow_72_473" result="shape"/>
</filter>
<linearGradient id="paint0_linear_72_473" x1="267" y1="2" x2="267" y2="177" gradientUnits="userSpaceOnUse">
<stop stop-color="#A11217" stop-opacity="0.7"/>
<stop offset="1" stop-color="#D71920"/>
</linearGradient>
<clipPath id="clip0_72_473">
<rect width="528" height="175" fill="white" transform="translate(3 2)"/>
</clipPath>
<clipPath id="clip1_72_473">
<rect width="144" height="176" fill="white" transform="translate(410.264 -2)"/>
</clipPath>
<clipPath id="clip2_72_473">
<rect width="144" height="139" fill="white" transform="translate(266.264 35)"/>
</clipPath>
<clipPath id="clip3_72_473">
<rect width="144" height="176" fill="white" transform="translate(3.26367 -2)"/>
</clipPath>
<clipPath id="clip4_72_473">
<rect width="144" height="144" fill="white" transform="translate(143.264 -2)"/>
</clipPath>
</defs>
</svg>
