<?xml version="1.0" encoding="UTF-8"?>
<svg id="Layer_1" data-name="Layer 1" xmlns="http://www.w3.org/2000/svg" viewBox="0 0 935 190">
  <defs>
    <style>
      .cls-1 {
        fill: #d71920;
      }

      .cls-2 {
        fill: #fff;
      }
    </style>
  </defs>
  <g>
    <path class="cls-2" d="M243.1218,28.885v24.6797h40.079v106.6842h26.7298V53.5647h40.2511v-24.6797h-107.0598Z"/>
    <path class="cls-2" d="M399.5097,60.8887c-12.5308-.755-25.3617,1.6346-32.661,13.2709l-1.6589-11.6903h-23.3807v97.7796h25.9785v-45.8225c0-6.5571,1.1425-11.9406,3.4273-16.1504,6.3083-11.5826,18.9532-12.5916,31.2682-12.238v-25.0553c-.6259,0-1.6119-.0313-2.9734-.094Z"/>
    <path class="cls-2" d="M497.9935,90.3884c-3.8061-11.6319-11.7412-20.967-23.0208-25.8845-13.0146-5.8494-33.4307-4.704-45.2746,2.7856-15.5896,9.3941-22.7967,25.8127-22.7234,44.5391-.0224,18.3483,6.709,34.7021,22.2695,43.6001,12.012,7.0875,31.6482,7.9752,45.6346,2.8795,12.907-4.594,21.9366-14.3559,24.8675-28.2947h-25.603c-4.0305,10.5882-22.4754,11.5218-30.8926,6.761-6.447-3.5583-9.7328-10.3508-10.4853-17.5278h66.9809c.7899-3.3112.9054-6.4179.9234-9.8437.1251-6.7921-.7669-13.1302-2.6761-19.0145ZM433.3287,101.0614c.8224-11.4878,9.4323-19.426,21.5185-19.1081,11.998-.3799,20.5638,7.6219,20.9706,19.1081h-42.4891Z"/>
    <path class="cls-2" d="M598.684,83.346c-2.2849-6.8703-6.0565-12.3477-11.3148-16.4322-13.3768-10.0726-40.718-7.855-52.0511,6.8703l-1.2989-11.3147h-24.3041v97.7796h25.9786v-48.2483c0-5.0705.7981-9.7028,2.41-13.9125,1.6119-4.1942,4.0846-7.5433,7.418-10.0159,5.1545-4.1579,16.0633-5.0886,21.7219-1.4868,2.3474,1.4868,4.1627,3.4743,5.4617,5.9469,2.7086,5.0309,3.3937,11.3622,3.443,17.0583,0,0,0,50.6582,0,50.6582h25.9785v-53.9916c0-8.4039-1.1581-16.0566-3.4429-22.9112Z"/>
    <path class="cls-2" d="M683.8967,28.885v42.6769c-6.59-7.7102-17.3788-10.648-27.2774-10.7674-30.1322-.5774-46.2969,22.0605-46.01,50.4708-.2502,26.9451,14.6207,50.9319,43.9757,50.2823,11.1723-.0248,22.6131-3.3299,29.6874-12.2379l.3599,10.9392h25.243V28.885h-25.9786ZM681.2989,124.2544c-3.8589,8.8036-11.1941,14.074-21.5184,13.9126-10.9611.3093-19.4864-6.0743-21.9878-16.4167-1.8993-7.3567-1.5379-16.1177.9232-23.1926,3.2569-9.1352,10.6904-14.1488,21.0645-14.0066,10.3419-.1072,17.7752,4.3596,21.6124,13.2552,3.3307,7.8958,3.383,18.4905-.094,26.4481Z"/>
    <path class="cls-2" d="M860.3205,28.885v131.3638h26.5263V28.885h-26.5263Z"/>
    <path class="cls-2" d="M822.4332,160.2489h28.5765l-50.6582-131.3795h-29.672l-51.2216,131.3795h28.5765l9.6217-26.5497c17.8997,4.3116,37.2811,4.3191,55.1855-.0187l9.5916,26.5684ZM765.794,110.9443c-.002-.0004.0028-.0078.0028-.0078l19.7188-53.8506s19.3445,53.8233,19.3449,53.8246c-14.3174,2.4635-22.8493,2.7698-39.0665.0338Z"/>
    <g>
      <path class="cls-2" d="M908.5962,30.5218h-5.2925v-1.6368h12.3547v1.6368h-5.291v14.0588h-1.7713v-14.0588Z"/>
      <path class="cls-2" d="M918.8953,28.885h1.7927l5.7189,8.5646,5.7174-8.5646h1.7942v15.6956h-1.7713v-12.7139l-5.7189,8.4087h-.0886l-5.7189-8.3858v12.691h-1.7254v-15.6956Z"/>
    </g>
  </g>
  <g>
    <path class="cls-1" d="M47.9582,74.1319c8.733,8.8949,17.2409,19.9067,19.2188,31.5326,3.5598-19.9277,30.42-47.053,50.4692-50.489-19.9184-3.222-47.3042-30.5695-50.4677-50.5304-3.5865,19.6949-30.6344,47.064-50.4707,50.5012,11.5607,1.9897,22.3748,10.3296,31.2504,18.9856Z"/>
    <path class="cls-1" d="M206.96,17.0867C186.3483-7.4909,148.0306.0152,118.4338,12.0285c46.9705-14.8147,90.043,4.6788,67.5668,60.4021-11.134,27.3956-39.1398,55.4172-65.978,71.2576-14.1716,9.1444-29.3313,16.8464-45.8502,19.1521-25.4145,3.4812-40.6454-9.6156-34.1811-35.7853,1.6302-6.3906,4.5977-12.8417,7.5439-19.1184-4.8502-11.4896-15.2857-23.2439-26.4849-26.5099-6.037,9.0657-10.4294,17.2729-14.8985,29.9626-10.1141,27.2717-6.8105,67.3172,27.7498,75.9817,63.2462,12.578,148.8033-54.5234,173.1553-110.4428,10.4224-23.5671,11.1678-45.3504-.0968-59.8416Z"/>
  </g>
</svg>